<svg width="223" height="48" viewBox="0 0 223 48" fill="none" xmlns="http://www.w3.org/2000/svg">
<g filter="url(#filter0_d_76_723)">
<g clip-path="url(#paint0_diamond_76_723_clip_path)" data-figma-skip-parse="true"><g transform="matrix(0.129632 -1.28496e-09 4.84679e-09 0.0413413 111.5 16.5)"><rect x="0" y="0" width="836.983" height="713.572" fill="url(#paint0_diamond_76_723)" opacity="1" shape-rendering="crispEdges"/><rect x="0" y="0" width="836.983" height="713.572" transform="scale(1 -1)" fill="url(#paint0_diamond_76_723)" opacity="1" shape-rendering="crispEdges"/><rect x="0" y="0" width="836.983" height="713.572" transform="scale(-1 1)" fill="url(#paint0_diamond_76_723)" opacity="1" shape-rendering="crispEdges"/><rect x="0" y="0" width="836.983" height="713.572" transform="scale(-1)" fill="url(#paint0_diamond_76_723)" opacity="1" shape-rendering="crispEdges"/></g></g><path d="M15.552 30.266C13.7787 30.266 12.1827 29.962 10.764 29.354C9.34533 28.7207 8.23067 27.834 7.42 26.694C6.60933 25.554 6.204 24.224 6.204 22.704H10.84C10.9413 23.844 11.3847 24.7813 12.17 25.516C12.9807 26.2507 14.108 26.618 15.552 26.618C17.0467 26.618 18.212 26.2633 19.048 25.554C19.884 24.8193 20.302 23.882 20.302 22.742C20.302 21.8553 20.036 21.1333 19.504 20.576C18.9973 20.0187 18.3513 19.588 17.566 19.284C16.806 18.98 15.742 18.6507 14.374 18.296C12.6513 17.84 11.2453 17.384 10.156 16.928C9.092 16.4467 8.18 15.712 7.42 14.724C6.66 13.736 6.28 12.4187 6.28 10.772C6.28 9.252 6.66 7.922 7.42 6.782C8.18 5.642 9.244 4.768 10.612 4.16C11.98 3.552 13.5633 3.248 15.362 3.248C17.9207 3.248 20.0107 3.894 21.632 5.186C23.2787 6.45266 24.1907 8.20066 24.368 10.43H19.58C19.504 9.46733 19.048 8.644 18.212 7.96C17.376 7.276 16.274 6.934 14.906 6.934C13.6647 6.934 12.6513 7.25067 11.866 7.884C11.0807 8.51733 10.688 9.42933 10.688 10.62C10.688 11.4307 10.9287 12.102 11.41 12.634C11.9167 13.1407 12.55 13.546 13.31 13.85C14.07 14.154 15.1087 14.4833 16.426 14.838C18.174 15.3193 19.5927 15.8007 20.682 16.282C21.7967 16.7633 22.734 17.5107 23.494 18.524C24.2793 19.512 24.672 20.842 24.672 22.514C24.672 23.8567 24.3047 25.1233 23.57 26.314C22.8607 27.5047 21.8093 28.4673 20.416 29.202C19.048 29.9113 17.4267 30.266 15.552 30.266ZM34.1156 12.14C34.8503 11.1773 35.8509 10.3667 37.1176 9.708C38.3843 9.04933 39.8156 8.72 41.4116 8.72C43.2356 8.72 44.8949 9.176 46.3896 10.088C47.9096 10.9747 49.1003 12.2287 49.9616 13.85C50.8229 15.4713 51.2536 17.3333 51.2536 19.436C51.2536 21.5387 50.8229 23.426 49.9616 25.098C49.1003 26.7447 47.9096 28.0367 46.3896 28.974C44.8949 29.886 43.2356 30.342 41.4116 30.342C39.8156 30.342 38.3969 30.0253 37.1556 29.392C35.9143 28.7333 34.9009 27.9227 34.1156 26.96V39.956H29.7836V9.062H34.1156V12.14ZM46.8456 19.436C46.8456 17.992 46.5416 16.7507 45.9336 15.712C45.3509 14.648 44.5656 13.85 43.5776 13.318C42.6149 12.7607 41.5763 12.482 40.4616 12.482C39.3723 12.482 38.3336 12.7607 37.3456 13.318C36.3829 13.8753 35.5976 14.686 34.9896 15.75C34.4069 16.814 34.1156 18.068 34.1156 19.512C34.1156 20.956 34.4069 22.2227 34.9896 23.312C35.5976 24.376 36.3829 25.1867 37.3456 25.744C38.3336 26.3013 39.3723 26.58 40.4616 26.58C41.5763 26.58 42.6149 26.3013 43.5776 25.744C44.5656 25.1613 45.3509 24.3253 45.9336 23.236C46.5416 22.1467 46.8456 20.88 46.8456 19.436ZM74.7275 19.018C74.7275 19.8033 74.6768 20.5127 74.5755 21.146H58.5775C58.7042 22.818 59.3248 24.1607 60.4395 25.174C61.5542 26.1873 62.9222 26.694 64.5435 26.694C66.8742 26.694 68.5208 25.7187 69.4835 23.768H74.1575C73.5242 25.6933 72.3715 27.2767 70.6995 28.518C69.0528 29.734 67.0008 30.342 64.5435 30.342C62.5422 30.342 60.7435 29.8987 59.1475 29.012C57.5768 28.1 56.3355 26.8333 55.4235 25.212C54.5368 23.5653 54.0935 21.6653 54.0935 19.512C54.0935 17.3587 54.5242 15.4713 55.3855 13.85C56.2722 12.2033 57.5008 10.9367 59.0715 10.05C60.6675 9.16333 62.4915 8.72 64.5435 8.72C66.5195 8.72 68.2802 9.15067 69.8255 10.012C71.3708 10.8733 72.5742 12.0893 73.4355 13.66C74.2968 15.2053 74.7275 16.9913 74.7275 19.018ZM70.2055 17.65C70.1802 16.054 69.6102 14.7747 68.4955 13.812C67.3808 12.8493 66.0002 12.368 64.3535 12.368C62.8588 12.368 61.5795 12.8493 60.5155 13.812C59.4515 14.7493 58.8182 16.0287 58.6155 17.65H70.2055ZM89.5546 8.72C91.2013 8.72 92.6706 9.062 93.9626 9.746C95.28 10.43 96.306 11.4433 97.0406 12.786C97.7753 14.1287 98.1426 15.75 98.1426 17.65V30H93.8486V18.296C93.8486 16.4213 93.38 14.99 92.4426 14.002C91.5053 12.9887 90.226 12.482 88.6046 12.482C86.9833 12.482 85.6913 12.9887 84.7286 14.002C83.7913 14.99 83.3226 16.4213 83.3226 18.296V30H78.9906V9.062H83.3226V11.456C84.032 10.5947 84.9313 9.92333 86.0206 9.442C87.1353 8.96067 88.3133 8.72 89.5546 8.72ZM102.224 19.436C102.224 17.3333 102.655 15.4713 103.516 13.85C104.403 12.2287 105.594 10.9747 107.088 10.088C108.608 9.176 110.293 8.72 112.142 8.72C113.51 8.72 114.853 9.024 116.17 9.632C117.513 10.2147 118.577 11 119.362 11.988V1.88H123.732V30H119.362V26.846C118.653 27.8593 117.665 28.6953 116.398 29.354C115.157 30.0127 113.726 30.342 112.104 30.342C110.28 30.342 108.608 29.886 107.088 28.974C105.594 28.0367 104.403 26.7447 103.516 25.098C102.655 23.426 102.224 21.5387 102.224 19.436ZM119.362 19.512C119.362 18.068 119.058 16.814 118.45 15.75C117.868 14.686 117.095 13.8753 116.132 13.318C115.17 12.7607 114.131 12.482 113.016 12.482C111.902 12.482 110.863 12.7607 109.9 13.318C108.938 13.85 108.152 14.648 107.544 15.712C106.962 16.7507 106.67 17.992 106.67 19.436C106.67 20.88 106.962 22.1467 107.544 23.236C108.152 24.3253 108.938 25.1613 109.9 25.744C110.888 26.3013 111.927 26.58 113.016 26.58C114.131 26.58 115.17 26.3013 116.132 25.744C117.095 25.1867 117.868 24.376 118.45 23.312C119.058 22.2227 119.362 20.956 119.362 19.512ZM163.812 3.59L155.984 30H151.082L145.534 10.012L139.644 30L134.78 30.038L127.294 3.59H131.892L137.364 25.098L143.292 3.59H148.156L153.666 24.984L159.176 3.59H163.812ZM169.589 6.288C168.804 6.288 168.145 6.022 167.613 5.49C167.081 4.958 166.815 4.29933 166.815 3.514C166.815 2.72867 167.081 2.07 167.613 1.538C168.145 1.006 168.804 0.739998 169.589 0.739998C170.349 0.739998 170.995 1.006 171.527 1.538C172.059 2.07 172.325 2.72867 172.325 3.514C172.325 4.29933 172.059 4.958 171.527 5.49C170.995 6.022 170.349 6.288 169.589 6.288ZM171.717 9.062V30H167.385V9.062H171.717ZM185.005 30.342C183.358 30.342 181.876 30.0507 180.559 29.468C179.267 28.86 178.241 28.0493 177.481 27.036C176.721 25.9973 176.315 24.8447 176.265 23.578H180.749C180.825 24.4647 181.243 25.212 182.003 25.82C182.788 26.4027 183.763 26.694 184.929 26.694C186.145 26.694 187.082 26.466 187.741 26.01C188.425 25.5287 188.767 24.9207 188.767 24.186C188.767 23.4007 188.387 22.818 187.627 22.438C186.892 22.058 185.714 21.64 184.093 21.184C182.522 20.7533 181.243 20.3353 180.255 19.93C179.267 19.5247 178.405 18.904 177.671 18.068C176.961 17.232 176.607 16.13 176.607 14.762C176.607 13.6473 176.936 12.634 177.595 11.722C178.253 10.7847 179.191 10.05 180.407 9.518C181.648 8.986 183.067 8.72 184.663 8.72C187.044 8.72 188.957 9.328 190.401 10.544C191.87 11.7347 192.655 13.3687 192.757 15.446H188.425C188.349 14.5087 187.969 13.7613 187.285 13.204C186.601 12.6467 185.676 12.368 184.511 12.368C183.371 12.368 182.497 12.5833 181.889 13.014C181.281 13.4447 180.977 14.0147 180.977 14.724C180.977 15.2813 181.179 15.75 181.585 16.13C181.99 16.51 182.484 16.814 183.067 17.042C183.649 17.2447 184.511 17.5107 185.651 17.84C187.171 18.2453 188.412 18.6633 189.375 19.094C190.363 19.4993 191.211 20.1073 191.921 20.918C192.63 21.7287 192.997 22.8053 193.023 24.148C193.023 25.3387 192.693 26.4027 192.035 27.34C191.376 28.2773 190.439 29.012 189.223 29.544C188.032 30.076 186.626 30.342 185.005 30.342ZM216.894 19.018C216.894 19.8033 216.843 20.5127 216.742 21.146H200.744C200.87 22.818 201.491 24.1607 202.606 25.174C203.72 26.1873 205.088 26.694 206.71 26.694C209.04 26.694 210.687 25.7187 211.65 23.768H216.324C215.69 25.6933 214.538 27.2767 212.866 28.518C211.219 29.734 209.167 30.342 206.71 30.342C204.708 30.342 202.91 29.8987 201.314 29.012C199.743 28.1 198.502 26.8333 197.59 25.212C196.703 23.5653 196.26 21.6653 196.26 19.512C196.26 17.3587 196.69 15.4713 197.552 13.85C198.438 12.2033 199.667 10.9367 201.238 10.05C202.834 9.16333 204.658 8.72 206.71 8.72C208.686 8.72 210.446 9.15067 211.992 10.012C213.537 10.8733 214.74 12.0893 215.602 13.66C216.463 15.2053 216.894 16.9913 216.894 19.018ZM212.372 17.65C212.346 16.054 211.776 14.7747 210.662 13.812C209.547 12.8493 208.166 12.368 206.52 12.368C205.025 12.368 203.746 12.8493 202.682 13.812C201.618 14.7493 200.984 16.0287 200.782 17.65H212.372Z" data-figma-gradient-fill="{&#34;type&#34;:&#34;GRADIENT_DIAMOND&#34;,&#34;stops&#34;:[{&#34;color&#34;:{&#34;r&#34;:0.99607843160629272,&#34;g&#34;:0.88235294818878174,&#34;b&#34;:0.10588235408067703,&#34;a&#34;:1.0},&#34;position&#34;:0.0},{&#34;color&#34;:{&#34;r&#34;:0.59607845544815063,&#34;g&#34;:0.52802222967147827,&#34;b&#34;:0.063362665474414825,&#34;a&#34;:1.0},&#34;position&#34;:1.0}],&#34;stopsVar&#34;:[{&#34;color&#34;:{&#34;r&#34;:0.99607843160629272,&#34;g&#34;:0.88235294818878174,&#34;b&#34;:0.10588235408067703,&#34;a&#34;:1.0},&#34;position&#34;:0.0},{&#34;color&#34;:{&#34;r&#34;:0.59607845544815063,&#34;g&#34;:0.52802222967147827,&#34;b&#34;:0.063362665474414825,&#34;a&#34;:1.0},&#34;position&#34;:1.0}],&#34;transform&#34;:{&#34;m00&#34;:259.26467895507812,&#34;m01&#34;:9.6935864348779432e-06,&#34;m02&#34;:-18.132347106933594,&#34;m10&#34;:-2.5699278012325522e-06,&#34;m11&#34;:82.68261718750,&#34;m12&#34;:-24.841306686401367},&#34;opacity&#34;:1.0,&#34;blendMode&#34;:&#34;NORMAL&#34;,&#34;visible&#34;:true}"/>
<g clip-path="url(#paint1_diamond_76_723_clip_path)" data-figma-skip-parse="true"><g transform="matrix(0.129632 -1.28496e-09 4.84679e-09 0.0413413 111.5 16.5)"><rect x="0" y="0" width="836.983" height="713.572" fill="url(#paint1_diamond_76_723)" opacity="1" shape-rendering="crispEdges"/><rect x="0" y="0" width="836.983" height="713.572" transform="scale(1 -1)" fill="url(#paint1_diamond_76_723)" opacity="1" shape-rendering="crispEdges"/><rect x="0" y="0" width="836.983" height="713.572" transform="scale(-1 1)" fill="url(#paint1_diamond_76_723)" opacity="1" shape-rendering="crispEdges"/><rect x="0" y="0" width="836.983" height="713.572" transform="scale(-1)" fill="url(#paint1_diamond_76_723)" opacity="1" shape-rendering="crispEdges"/></g></g><path d="M4 33.8H27.8813V35.7H4V33.8ZM36.0172 33.8H218.307V35.7H36.0172V33.8Z" data-figma-gradient-fill="{&#34;type&#34;:&#34;GRADIENT_DIAMOND&#34;,&#34;stops&#34;:[{&#34;color&#34;:{&#34;r&#34;:0.99607843160629272,&#34;g&#34;:0.88235294818878174,&#34;b&#34;:0.10588235408067703,&#34;a&#34;:1.0},&#34;position&#34;:0.0},{&#34;color&#34;:{&#34;r&#34;:0.59607845544815063,&#34;g&#34;:0.52802222967147827,&#34;b&#34;:0.063362665474414825,&#34;a&#34;:1.0},&#34;position&#34;:1.0}],&#34;stopsVar&#34;:[{&#34;color&#34;:{&#34;r&#34;:0.99607843160629272,&#34;g&#34;:0.88235294818878174,&#34;b&#34;:0.10588235408067703,&#34;a&#34;:1.0},&#34;position&#34;:0.0},{&#34;color&#34;:{&#34;r&#34;:0.59607845544815063,&#34;g&#34;:0.52802222967147827,&#34;b&#34;:0.063362665474414825,&#34;a&#34;:1.0},&#34;position&#34;:1.0}],&#34;transform&#34;:{&#34;m00&#34;:259.26467895507812,&#34;m01&#34;:9.6935864348779432e-06,&#34;m02&#34;:-18.132347106933594,&#34;m10&#34;:-2.5699278012325522e-06,&#34;m11&#34;:82.68261718750,&#34;m12&#34;:-24.841306686401367},&#34;opacity&#34;:1.0,&#34;blendMode&#34;:&#34;NORMAL&#34;,&#34;visible&#34;:true}"/>
</g>
<defs>
<filter id="filter0_d_76_723" x="0" y="0.73999" width="222.307" height="47.2161" filterUnits="userSpaceOnUse" color-interpolation-filters="sRGB">
<feFlood flood-opacity="0" result="BackgroundImageFix"/>
<feColorMatrix in="SourceAlpha" type="matrix" values="0 0 0 0 0 0 0 0 0 0 0 0 0 0 0 0 0 0 127 0" result="hardAlpha"/>
<feOffset dy="4"/>
<feGaussianBlur stdDeviation="2"/>
<feComposite in2="hardAlpha" operator="out"/>
<feColorMatrix type="matrix" values="0 0 0 0 0 0 0 0 0 0 0 0 0 0 0 0 0 0 0.25 0"/>
<feBlend mode="normal" in2="BackgroundImageFix" result="effect1_dropShadow_76_723"/>
<feBlend mode="normal" in="SourceGraphic" in2="effect1_dropShadow_76_723" result="shape"/>
</filter>
<clipPath id="paint0_diamond_76_723_clip_path"><path d="M15.552 30.266C13.7787 30.266 12.1827 29.962 10.764 29.354C9.34533 28.7207 8.23067 27.834 7.42 26.694C6.60933 25.554 6.204 24.224 6.204 22.704H10.84C10.9413 23.844 11.3847 24.7813 12.17 25.516C12.9807 26.2507 14.108 26.618 15.552 26.618C17.0467 26.618 18.212 26.2633 19.048 25.554C19.884 24.8193 20.302 23.882 20.302 22.742C20.302 21.8553 20.036 21.1333 19.504 20.576C18.9973 20.0187 18.3513 19.588 17.566 19.284C16.806 18.98 15.742 18.6507 14.374 18.296C12.6513 17.84 11.2453 17.384 10.156 16.928C9.092 16.4467 8.18 15.712 7.42 14.724C6.66 13.736 6.28 12.4187 6.28 10.772C6.28 9.252 6.66 7.922 7.42 6.782C8.18 5.642 9.244 4.768 10.612 4.16C11.98 3.552 13.5633 3.248 15.362 3.248C17.9207 3.248 20.0107 3.894 21.632 5.186C23.2787 6.45266 24.1907 8.20066 24.368 10.43H19.58C19.504 9.46733 19.048 8.644 18.212 7.96C17.376 7.276 16.274 6.934 14.906 6.934C13.6647 6.934 12.6513 7.25067 11.866 7.884C11.0807 8.51733 10.688 9.42933 10.688 10.62C10.688 11.4307 10.9287 12.102 11.41 12.634C11.9167 13.1407 12.55 13.546 13.31 13.85C14.07 14.154 15.1087 14.4833 16.426 14.838C18.174 15.3193 19.5927 15.8007 20.682 16.282C21.7967 16.7633 22.734 17.5107 23.494 18.524C24.2793 19.512 24.672 20.842 24.672 22.514C24.672 23.8567 24.3047 25.1233 23.57 26.314C22.8607 27.5047 21.8093 28.4673 20.416 29.202C19.048 29.9113 17.4267 30.266 15.552 30.266ZM34.1156 12.14C34.8503 11.1773 35.8509 10.3667 37.1176 9.708C38.3843 9.04933 39.8156 8.72 41.4116 8.72C43.2356 8.72 44.8949 9.176 46.3896 10.088C47.9096 10.9747 49.1003 12.2287 49.9616 13.85C50.8229 15.4713 51.2536 17.3333 51.2536 19.436C51.2536 21.5387 50.8229 23.426 49.9616 25.098C49.1003 26.7447 47.9096 28.0367 46.3896 28.974C44.8949 29.886 43.2356 30.342 41.4116 30.342C39.8156 30.342 38.3969 30.0253 37.1556 29.392C35.9143 28.7333 34.9009 27.9227 34.1156 26.96V39.956H29.7836V9.062H34.1156V12.14ZM46.8456 19.436C46.8456 17.992 46.5416 16.7507 45.9336 15.712C45.3509 14.648 44.5656 13.85 43.5776 13.318C42.6149 12.7607 41.5763 12.482 40.4616 12.482C39.3723 12.482 38.3336 12.7607 37.3456 13.318C36.3829 13.8753 35.5976 14.686 34.9896 15.75C34.4069 16.814 34.1156 18.068 34.1156 19.512C34.1156 20.956 34.4069 22.2227 34.9896 23.312C35.5976 24.376 36.3829 25.1867 37.3456 25.744C38.3336 26.3013 39.3723 26.58 40.4616 26.58C41.5763 26.58 42.6149 26.3013 43.5776 25.744C44.5656 25.1613 45.3509 24.3253 45.9336 23.236C46.5416 22.1467 46.8456 20.88 46.8456 19.436ZM74.7275 19.018C74.7275 19.8033 74.6768 20.5127 74.5755 21.146H58.5775C58.7042 22.818 59.3248 24.1607 60.4395 25.174C61.5542 26.1873 62.9222 26.694 64.5435 26.694C66.8742 26.694 68.5208 25.7187 69.4835 23.768H74.1575C73.5242 25.6933 72.3715 27.2767 70.6995 28.518C69.0528 29.734 67.0008 30.342 64.5435 30.342C62.5422 30.342 60.7435 29.8987 59.1475 29.012C57.5768 28.1 56.3355 26.8333 55.4235 25.212C54.5368 23.5653 54.0935 21.6653 54.0935 19.512C54.0935 17.3587 54.5242 15.4713 55.3855 13.85C56.2722 12.2033 57.5008 10.9367 59.0715 10.05C60.6675 9.16333 62.4915 8.72 64.5435 8.72C66.5195 8.72 68.2802 9.15067 69.8255 10.012C71.3708 10.8733 72.5742 12.0893 73.4355 13.66C74.2968 15.2053 74.7275 16.9913 74.7275 19.018ZM70.2055 17.65C70.1802 16.054 69.6102 14.7747 68.4955 13.812C67.3808 12.8493 66.0002 12.368 64.3535 12.368C62.8588 12.368 61.5795 12.8493 60.5155 13.812C59.4515 14.7493 58.8182 16.0287 58.6155 17.65H70.2055ZM89.5546 8.72C91.2013 8.72 92.6706 9.062 93.9626 9.746C95.28 10.43 96.306 11.4433 97.0406 12.786C97.7753 14.1287 98.1426 15.75 98.1426 17.65V30H93.8486V18.296C93.8486 16.4213 93.38 14.99 92.4426 14.002C91.5053 12.9887 90.226 12.482 88.6046 12.482C86.9833 12.482 85.6913 12.9887 84.7286 14.002C83.7913 14.99 83.3226 16.4213 83.3226 18.296V30H78.9906V9.062H83.3226V11.456C84.032 10.5947 84.9313 9.92333 86.0206 9.442C87.1353 8.96067 88.3133 8.72 89.5546 8.72ZM102.224 19.436C102.224 17.3333 102.655 15.4713 103.516 13.85C104.403 12.2287 105.594 10.9747 107.088 10.088C108.608 9.176 110.293 8.72 112.142 8.72C113.51 8.72 114.853 9.024 116.17 9.632C117.513 10.2147 118.577 11 119.362 11.988V1.88H123.732V30H119.362V26.846C118.653 27.8593 117.665 28.6953 116.398 29.354C115.157 30.0127 113.726 30.342 112.104 30.342C110.28 30.342 108.608 29.886 107.088 28.974C105.594 28.0367 104.403 26.7447 103.516 25.098C102.655 23.426 102.224 21.5387 102.224 19.436ZM119.362 19.512C119.362 18.068 119.058 16.814 118.45 15.75C117.868 14.686 117.095 13.8753 116.132 13.318C115.17 12.7607 114.131 12.482 113.016 12.482C111.902 12.482 110.863 12.7607 109.9 13.318C108.938 13.85 108.152 14.648 107.544 15.712C106.962 16.7507 106.67 17.992 106.67 19.436C106.67 20.88 106.962 22.1467 107.544 23.236C108.152 24.3253 108.938 25.1613 109.9 25.744C110.888 26.3013 111.927 26.58 113.016 26.58C114.131 26.58 115.17 26.3013 116.132 25.744C117.095 25.1867 117.868 24.376 118.45 23.312C119.058 22.2227 119.362 20.956 119.362 19.512ZM163.812 3.59L155.984 30H151.082L145.534 10.012L139.644 30L134.78 30.038L127.294 3.59H131.892L137.364 25.098L143.292 3.59H148.156L153.666 24.984L159.176 3.59H163.812ZM169.589 6.288C168.804 6.288 168.145 6.022 167.613 5.49C167.081 4.958 166.815 4.29933 166.815 3.514C166.815 2.72867 167.081 2.07 167.613 1.538C168.145 1.006 168.804 0.739998 169.589 0.739998C170.349 0.739998 170.995 1.006 171.527 1.538C172.059 2.07 172.325 2.72867 172.325 3.514C172.325 4.29933 172.059 4.958 171.527 5.49C170.995 6.022 170.349 6.288 169.589 6.288ZM171.717 9.062V30H167.385V9.062H171.717ZM185.005 30.342C183.358 30.342 181.876 30.0507 180.559 29.468C179.267 28.86 178.241 28.0493 177.481 27.036C176.721 25.9973 176.315 24.8447 176.265 23.578H180.749C180.825 24.4647 181.243 25.212 182.003 25.82C182.788 26.4027 183.763 26.694 184.929 26.694C186.145 26.694 187.082 26.466 187.741 26.01C188.425 25.5287 188.767 24.9207 188.767 24.186C188.767 23.4007 188.387 22.818 187.627 22.438C186.892 22.058 185.714 21.64 184.093 21.184C182.522 20.7533 181.243 20.3353 180.255 19.93C179.267 19.5247 178.405 18.904 177.671 18.068C176.961 17.232 176.607 16.13 176.607 14.762C176.607 13.6473 176.936 12.634 177.595 11.722C178.253 10.7847 179.191 10.05 180.407 9.518C181.648 8.986 183.067 8.72 184.663 8.72C187.044 8.72 188.957 9.328 190.401 10.544C191.87 11.7347 192.655 13.3687 192.757 15.446H188.425C188.349 14.5087 187.969 13.7613 187.285 13.204C186.601 12.6467 185.676 12.368 184.511 12.368C183.371 12.368 182.497 12.5833 181.889 13.014C181.281 13.4447 180.977 14.0147 180.977 14.724C180.977 15.2813 181.179 15.75 181.585 16.13C181.99 16.51 182.484 16.814 183.067 17.042C183.649 17.2447 184.511 17.5107 185.651 17.84C187.171 18.2453 188.412 18.6633 189.375 19.094C190.363 19.4993 191.211 20.1073 191.921 20.918C192.63 21.7287 192.997 22.8053 193.023 24.148C193.023 25.3387 192.693 26.4027 192.035 27.34C191.376 28.2773 190.439 29.012 189.223 29.544C188.032 30.076 186.626 30.342 185.005 30.342ZM216.894 19.018C216.894 19.8033 216.843 20.5127 216.742 21.146H200.744C200.87 22.818 201.491 24.1607 202.606 25.174C203.72 26.1873 205.088 26.694 206.71 26.694C209.04 26.694 210.687 25.7187 211.65 23.768H216.324C215.69 25.6933 214.538 27.2767 212.866 28.518C211.219 29.734 209.167 30.342 206.71 30.342C204.708 30.342 202.91 29.8987 201.314 29.012C199.743 28.1 198.502 26.8333 197.59 25.212C196.703 23.5653 196.26 21.6653 196.26 19.512C196.26 17.3587 196.69 15.4713 197.552 13.85C198.438 12.2033 199.667 10.9367 201.238 10.05C202.834 9.16333 204.658 8.72 206.71 8.72C208.686 8.72 210.446 9.15067 211.992 10.012C213.537 10.8733 214.74 12.0893 215.602 13.66C216.463 15.2053 216.894 16.9913 216.894 19.018ZM212.372 17.65C212.346 16.054 211.776 14.7747 210.662 13.812C209.547 12.8493 208.166 12.368 206.52 12.368C205.025 12.368 203.746 12.8493 202.682 13.812C201.618 14.7493 200.984 16.0287 200.782 17.65H212.372Z"/></clipPath><clipPath id="paint1_diamond_76_723_clip_path"><path d="M4 33.8H27.8813V35.7H4V33.8ZM36.0172 33.8H218.307V35.7H36.0172V33.8Z"/></clipPath><linearGradient id="paint0_diamond_76_723" x1="0" y1="0" x2="500" y2="500" gradientUnits="userSpaceOnUse">
<stop stop-color="#FEE11B"/>
<stop offset="1" stop-color="#988710"/>
</linearGradient>
<linearGradient id="paint1_diamond_76_723" x1="0" y1="0" x2="500" y2="500" gradientUnits="userSpaceOnUse">
<stop stop-color="#FEE11B"/>
<stop offset="1" stop-color="#988710"/>
</linearGradient>
</defs>
</svg>
